HIERARCHY
ROOT Hips
{
	OFFSET 0.000000 0.000000 0.000000
	CHANNELS 6 Xposition Yposition Zposition Zrotation Yrotation Xrotation 
	JOINT LHipJoint
	{
		OFFSET 0.000000 0.000000 0.000000
		CHANNELS 3 Zrotation Yrotation Xrotation
		JOINT LeftUpLeg
		{
			OFFSET 1.363060 -1.794630 0.839290
			CHANNELS 3 Zrotation Yrotation Xrotation
			JOINT LeftLeg
			{
				OFFSET 2.448110 -6.726130 0.000000
				CHANNELS 3 Zrotation Yrotation Xrotation
				JOINT LeftFoot
				{
					OFFSET 2.562200 -7.039590 0.000000
					CHANNELS 3 Zrotation Yrotation Xrotation
					JOINT LeftToeBase
					{
						OFFSET 0.157640 -0.433110 2.322550
						CHANNELS 3 Zrotation Yrotation Xrotation
						End Site
						{
							OFFSET 0.000000 0.000000 0.000000
						}
					}
				}
			}
		}
	}
	JOINT RHipJoint
	{
		OFFSET 0.000000 0.000000 0.000000
		CHANNELS 3 Zrotation Yrotation Xrotation
		JOINT RightUpLeg
		{
			OFFSET -1.305520 -1.794630 0.839290
			CHANNELS 3 Zrotation Yrotation Xrotation
			JOINT RightLeg
			{
				OFFSET -2.542530 -6.985550 0.000000
				CHANNELS 3 Zrotation Yrotation Xrotation
				JOINT RightFoot
				{
					OFFSET -2.568260 -7.056230 0.000000
					CHANNELS 3 Zrotation Yrotation Xrotation
					JOINT RightToeBase
					{
						OFFSET -0.164730 -0.452590 2.363150
						CHANNELS 3 Zrotation Yrotation Xrotation
						End Site
						{
							OFFSET 0.000000 0.000000 0.000000
						}
					}
				}
			}
		}
	}
	JOINT LowerBack
	{
		OFFSET 0.000000 0.000000 0.000000
		CHANNELS 3 Zrotation Yrotation Xrotation
		JOINT Spine
		{
			OFFSET 0.028270 2.035590 -0.193380
			CHANNELS 3 Zrotation Yrotation Xrotation
			JOINT Spine1
			{
				OFFSET 0.056720 2.048850 -0.042750
				CHANNELS 3 Zrotation Yrotation Xrotation
				JOINT Neck
				{
					OFFSET 0.000000 0.000000 0.000000
					CHANNELS 3 Zrotation Yrotation Xrotation
					JOINT Neck1
					{
						OFFSET -0.054170 1.746240 0.172020
						CHANNELS 3 Zrotation Yrotation Xrotation
						JOINT Head
						{
							OFFSET 0.104070 1.761360 -0.123970
							CHANNELS 3 Zrotation Yrotation Xrotation
							End Site
							{
								OFFSET 0.000000 0.000000 0.000000
							}
						}
					}
				}
				JOINT LeftShoulder
				{
					OFFSET 0.000000 0.000000 0.000000
					CHANNELS 3 Zrotation Yrotation Xrotation
					JOINT LeftArm
					{
						OFFSET 3.362410 1.200890 -0.311210
						CHANNELS 3 Zrotation Yrotation Xrotation
						JOINT LeftForeArm
						{
							OFFSET 4.983000 -0.000000 -0.000000
							CHANNELS 3 Zrotation Yrotation Xrotation
							JOINT LeftHand
							{
								OFFSET 3.483560 -0.000000 -0.000000
								CHANNELS 3 Zrotation Yrotation Xrotation
								JOINT LeftFingerBase
								{
									OFFSET 0.000000 0.000000 0.000000
									CHANNELS 3 Zrotation Yrotation Xrotation
									JOINT LeftHandIndex1
									{
										OFFSET 0.715260 -0.000000 -0.000000
										CHANNELS 3 Zrotation Yrotation Xrotation
										End Site
										{
											OFFSET 0.000000 0.000000 0.000000
										}
									}
								}
								JOINT LThumb
								{
									OFFSET 0.000000 0.000000 0.000000
									CHANNELS 3 Zrotation Yrotation Xrotation
									End Site
									{
										OFFSET 0.000000 0.000000 0.000000
									}
								}
							}
						}
					}
				}
				JOINT RightShoulder
				{
					OFFSET 0.000000 0.000000 0.000000
					CHANNELS 3 Zrotation Yrotation Xrotation
					JOINT RightArm
					{
						OFFSET -3.136600 1.374050 -0.404650
						CHANNELS 3 Zrotation Yrotation Xrotation
						JOINT RightForeArm
						{
							OFFSET -5.241900 -0.000000 -0.000000
							CHANNELS 3 Zrotation Yrotation Xrotation
							JOINT RightHand
							{
								OFFSET -3.444170 -0.000000 -0.000000
								CHANNELS 3 Zrotation Yrotation Xrotation
								JOINT RightFingerBase
								{
									OFFSET 0.000000 0.000000 0.000000
									CHANNELS 3 Zrotation Yrotation Xrotation
									JOINT RightHandIndex1
									{
										OFFSET -0.622530 -0.000000 -0.000000
										CHANNELS 3 Zrotation Yrotation Xrotation
										End Site
										{
											OFFSET 0.000000 0.000000 0.000000
										}
									}
								}
								JOINT RThumb
								{
									OFFSET 0.000000 0.000000 0.000000
									CHANNELS 3 Zrotation Yrotation Xrotation
									End Site
									{
										OFFSET 0.000000 0.000000 0.000000
									}
								}
							}
						}
					}
				}
			}
		}
	}
}
MOTION
Frames: 11
Frame Time: 0.008333
2.476335 17.301800 -1.437604 179.183181 8.250687 -174.754950 -6.115175 24.410041 -2.875117 -15.780696 -11.463611 -29.941800 7.916687 4.640059 52.740065 23.444991 1.237933 -0.875185 -6.978472 4.664201 -9.493447 -1.454496 -22.054025 -1.148318 22.451954 -0.839737 -4.422787 2.982050 -6.658558 28.919078 -24.136731 13.412526 -17.437541 9.484707 -25.258392 -11.473250 7.434551 1.782641 11.315231 10.285290 2.653132 18.471315 -11.205713 -8.472147 -31.532196 -6.023247 0.113793 -14.682999 1.908942 2.198035 14.343474 -1.488344 3.718104 -6.114616 -0.607808 26.989446 5.748507 -67.297504 -7.410703 44.865771 -0.508513 -40.442031 10.963971 10.466794 -2.958850 9.350269 1.283402 14.716409 -0.000000 0.000000 0.000000 0.000000 0.000000 0.000000 0.000000 -5.522614 -34.917796 -2.649185 77.869425 4.510082 54.914411 1.038965 15.982883 16.925895 -1.560725 8.714390 5.903091 6.083048 -14.937756 -0.000000 0.000000 0.000000 0.000000 0.000000 0.000000 0.000000 
2.486730 17.299550 -1.483262 179.103208 8.118545 -174.668406 -6.151280 24.437581 -3.002028 -16.232250 -11.483255 -29.855868 7.652866 4.451863 51.312235 23.268500 0.941908 -1.084785 -6.984834 4.477317 -9.547811 -1.456254 -22.022252 -1.139615 22.351422 -0.854740 -4.401036 3.003333 -6.745411 28.914465 -24.171688 13.370476 -17.460414 9.461447 -25.290594 -11.486842 7.548859 1.789443 11.433579 10.164261 2.620894 18.337977 -11.256081 -8.491757 -31.456284 -6.031086 0.072488 -14.632413 1.874461 2.107723 14.196711 -1.515480 3.669700 -6.205683 -0.628775 26.860506 5.844216 -67.547015 -7.211697 44.789847 -0.433315 -40.459947 11.003127 10.531670 -3.058648 9.424303 1.262265 14.748169 -0.000000 0.000000 0.000000 0.000000 0.000000 0.000000 0.000000 -5.523774 -34.932593 -2.653531 77.821281 4.558853 54.700712 0.970710 15.916264 16.835171 -1.566142 8.413626 5.875660 6.057450 -14.951221 -0.000000 0.000000 0.000000 0.000000 0.000000 0.000000 0.000000 
2.495835 17.296400 -1.531215 179.006930 7.994619 -174.580937 -6.187633 24.450928 -3.118098 -16.717508 -11.500250 -29.709186 7.409859 4.233728 49.795527 23.082280 0.612105 -1.348975 -6.977659 4.295958 -9.540274 -1.466999 -21.990518 -1.132298 22.221709 -0.887346 -4.385359 3.042895 -6.842562 28.906976 -24.185230 13.336937 -17.503994 9.436701 -25.303858 -11.467841 7.687682 1.794570 11.539313 10.048536 2.585087 18.208783 -11.368901 -8.533962 -31.369507 -6.032049 0.013340 -14.569162 1.832681 2.001699 14.041116 -1.545394 3.619372 -6.300984 -0.658536 26.736911 5.916283 -67.752426 -7.046892 44.745210 -0.406989 -40.405785 10.990044 10.535760 -3.151555 9.432725 1.228186 14.781682 -0.000000 0.000000 0.000000 0.000000 0.000000 0.000000 0.000000 -5.584538 -34.934772 -2.652621 77.837003 4.551502 54.441566 0.914650 15.910338 16.732084 -1.478954 8.416334 5.743602 6.031292 -14.926657 -0.000000 0.000000 0.000000 0.000000 0.000000 0.000000 0.000000 
2.505165 17.292200 -1.579695 178.929669 7.859199 -174.489762 -6.208927 24.451164 -3.223821 -17.196235 -11.526528 -29.555795 7.159223 3.985167 48.253666 23.084510 0.214643 -1.494112 -6.953932 4.083335 -9.616720 -1.481276 -21.945833 -1.120757 22.110140 -0.938713 -4.323862 3.102697 -6.896898 28.830634 -24.455174 13.356889 -17.534657 9.301176 -25.426093 -11.505300 7.795198 1.809933 11.633477 9.966396 2.563526 18.068327 -11.464238 -8.579020 -31.268230 -6.041327 0.001600 -14.519075 1.824109 1.941785 13.915245 -1.563780 3.571623 -6.382790 -0.690700 26.559021 6.004809 -67.969966 -6.876609 44.726294 -0.375094 -40.297849 10.962572 10.536208 -3.186230 9.429528 1.189941 14.826146 -0.000000 0.000000 0.000000 0.000000 0.000000 0.000000 0.000000 -5.620223 -34.922714 -2.653813 77.833032 4.561709 54.247355 0.855640 15.914167 16.640404 -1.449589 8.360389 5.670741 5.997333 -14.912715 -0.000000 0.000000 0.000000 0.000000 0.000000 0.000000 0.000000 
2.514375 17.287400 -1.628745 178.849711 7.713364 -174.385328 -6.224425 24.428689 -3.322996 -17.661233 -11.556966 -29.388898 6.872610 3.710623 46.672460 22.841512 -0.235436 -1.824055 -6.941435 3.928693 -9.501854 -1.503502 -21.871250 -1.121582 22.031762 -0.964985 -4.229286 3.131980 -6.955500 28.696472 -24.439357 13.265365 -17.581920 9.317270 -25.440390 -11.543344 7.905212 1.815236 11.733847 9.874113 2.531851 17.967193 -11.548440 -8.620279 -31.222291 -6.042382 -0.033827 -14.462365 1.796960 1.860831 13.765258 -1.588180 3.526379 -6.477332 -0.734327 26.429087 6.056223 -68.175606 -6.733297 44.783684 -0.361078 -40.129353 10.929351 10.549068 -3.187996 9.433277 1.157242 14.876203 0.000000 0.000000 0.000000 0.000000 0.000000 0.000000 0.000000 -5.642443 -34.929130 -2.675292 77.807144 4.588428 54.079478 0.850453 15.949484 16.469307 -1.435381 8.199770 5.585876 5.948458 -14.903668 -0.000000 0.000000 0.000000 0.000000 0.000000 0.000000 0.000000 
2.522865 17.281400 -1.680315 178.779645 7.557928 -174.292300 -6.240214 24.413847 -3.418602 -18.135682 -11.564542 -29.205814 6.584067 3.440034 45.039537 22.759201 -0.657082 -1.997298 -6.948752 3.755246 -9.572506 -1.531314 -21.794825 -1.111233 21.960390 -1.005647 -4.097445 3.151635 -7.000048 28.525400 -24.659617 13.169981 -17.667296 9.174438 -25.534700 -11.498480 8.014180 1.826992 11.810093 9.838903 2.511006 17.867417 -11.669437 -8.695344 -31.148769 -6.045868 -0.060565 -14.406922 1.776252 1.793386 13.633721 -1.608623 3.484365 -6.560158 -0.790703 26.253687 6.115145 -68.378558 -6.601089 44.918076 -0.328035 -39.860042 10.890264 10.601744 -3.205347 9.464926 1.142867 14.932578 0.000000 0.000000 0.000000 0.000000 0.000000 0.000000 0.000000 -5.686864 -34.911052 -2.690965 77.787726 4.574245 54.037649 0.804885 15.991394 16.432072 -1.427101 8.340650 5.547394 5.913665 -14.880779 -0.000000 0.000000 0.000000 0.000000 0.000000 0.000000 0.000000 
2.531160 17.274650 -1.732365 178.709502 7.415635 -174.191911 -6.251419 24.388115 -3.498926 -18.590476 -11.588968 -29.025678 6.271108 3.133301 43.427873 22.541428 -1.148351 -2.281185 -6.965441 3.621329 -9.533724 -1.552502 -21.739835 -1.114711 21.859088 -1.072314 -4.003855 3.197761 -7.052534 28.454728 -24.951415 13.205600 -17.739273 9.010563 -25.650540 -11.482697 8.109436 1.846646 11.912907 9.818305 2.501737 17.768827 -11.784133 -8.778395 -31.113635 -6.042263 -0.116912 -14.342433 1.738329 1.703656 13.505706 -1.633904 3.445694 -6.641576 -0.858276 26.121140 6.149347 -68.555662 -6.493141 45.150270 -0.316440 -39.538409 10.858759 10.652964 -3.109770 9.498564 1.109416 15.006714 0.000000 0.000000 0.000000 0.000000 0.000000 0.000000 0.000000 -5.725715 -34.901771 -2.725803 77.780993 4.569121 54.006067 0.793099 16.026060 16.347276 -1.406685 8.381014 5.484599 5.886781 -14.866943 -0.000000 0.000000 0.000000 0.000000 0.000000 0.000000 0.000000 
2.539290 17.267000 -1.785540 178.636735 7.277754 -174.096940 -6.257122 24.373776 -3.582217 -19.066523 -11.593539 -28.818889 5.961461 2.817902 41.789147 22.457980 -1.654470 -2.490289 -6.964050 3.478135 -9.522012 -1.573588 -21.682562 -1.114137 21.759842 -1.134084 -3.905718 3.227984 -7.127367 28.359612 -24.988607 13.154327 -17.829845 8.975748 -25.664610 -11.452677 8.202228 1.852601 12.002224 9.752383 2.477176 17.689457 -11.885220 -8.834530 -31.084214 -6.043936 -0.119919 -14.271421 1.740041 1.657444 13.385376 -1.648260 3.402008 -6.723200 -0.920726 25.962569 6.163841 -68.723599 -6.396236 45.398037 -0.330270 -39.125831 10.788156 10.590836 -3.105373 9.439124 1.037805 15.069170 0.000000 0.000000 0.000000 0.000000 0.000000 0.000000 0.000000 -5.746724 -34.884012 -2.761754 77.768786 4.560589 54.018332 0.788480 16.104949 16.299316 -1.367955 8.401047 5.425261 5.894595 -14.863602 -0.000000 0.000000 0.000000 0.000000 0.000000 0.000000 0.000000 
2.546100 17.258600 -1.839975 178.572567 7.153331 -173.996151 -6.257425 24.333334 -3.649569 -19.501261 -11.614152 -28.617432 5.641853 2.473738 40.163652 22.273000 -2.176619 -2.773098 -6.972822 3.364016 -9.450678 -1.594352 -21.647790 -1.129206 21.650415 -1.232402 -3.822691 3.271980 -7.202329 28.305782 -25.087089 13.175508 -17.930833 8.933951 -25.698708 -11.471473 8.278273 1.887962 12.111717 9.744843 2.487173 17.579439 -11.987417 -8.908308 -31.061313 -6.041849 -0.152133 -14.207096 1.713159 1.594614 13.302446 -1.666924 3.373013 -6.781989 -0.992280 25.815636 6.174458 -68.911151 -6.298218 45.723454 -0.342820 -38.660931 10.720908 10.581692 -3.072786 9.419152 0.987293 15.138165 0.000000 0.000000 0.000000 0.000000 0.000000 0.000000 0.000000 -5.771049 -34.862828 -2.802183 77.736302 4.566306 54.095067 0.787492 16.141097 16.241531 -1.382933 8.424890 5.408874 5.874379 -14.861106 -0.000000 0.000000 0.000000 0.000000 0.000000 0.000000 0.000000 
2.552340 17.249750 -1.894815 178.498857 7.030901 -173.890740 -6.259019 24.300863 -3.711318 -19.938392 -11.623383 -28.425247 5.278183 2.118263 38.541061 22.082391 -2.713266 -2.812157 -7.030059 3.279879 -9.457146 -1.613789 -21.597913 -1.140555 21.536034 -1.307528 -3.741912 3.303473 -7.277846 28.247214 -25.322173 13.173606 -18.037502 8.812895 -25.793989 -11.489751 8.362108 1.908158 12.218224 9.709702 2.482739 17.471052 -12.094724 -8.976546 -31.025766 -6.041205 -0.166135 -14.136421 1.700903 1.547215 13.210291 -1.681990 3.341814 -6.847527 -1.062067 25.635936 6.171337 -69.099847 -6.216370 46.086910 -0.351003 -38.106310 10.644205 10.531840 -3.018741 9.367032 0.914432 15.212354 0.000000 0.000000 0.000000 0.000000 0.000000 0.000000 0.000000 -5.797584 -34.812521 -2.843910 77.724271 4.566690 54.213667 0.796421 16.229648 16.202713 -1.442718 8.381807 5.442589 5.859329 -14.870986 -0.000000 0.000000 0.000000 0.000000 0.000000 0.000000 0.000000 
2.559060 17.239850 -1.952895 178.438279 6.929376 -173.794434 -6.250925 24.259145 -3.764114 -20.350219 -11.628894 -28.218094 4.935759 1.754533 36.941566 21.948014 -3.218313 -2.888866 -7.026651 3.203103 -9.320859 -1.638270 -21.541277 -1.138430 21.426498 -1.394529 -3.627398 3.346079 -7.331124 28.150603 -25.624598 13.198886 -18.159475 8.647066 -25.906471 -11.478954 8.428497 1.928918 12.296779 9.684976 2.478465 17.416834 -12.187526 -9.029068 -31.027000 -6.046075 -0.157852 -14.072642 1.697869 1.525166 13.133240 -1.691193 3.319464 -6.902400 -1.128806 25.485243 6.178530 -69.239707 -6.132136 46.453625 -0.405312 -37.597675 10.541799 10.449168 -2.874711 9.277752 0.826438 15.295259 0.000000 0.000000 0.000000 0.000000 0.000000 0.000000 0.000000 -5.808758 -34.787067 -2.908949 77.724411 4.569122 54.335169 0.802716 16.262210 16.170820 -1.445688 8.424905 5.426442 5.858622 -14.872080 -0.000000 0.000000 0.000000 0.000000 0.000000 0.000000 0.000000 
